<svg version="1.1" id="图层_1" xmlns="http://www.w3.org/2000/svg" xmlns:xlink="http://www.w3.org/1999/xlink" x="0px" y="0px"
	 viewBox="0 0 16 16" style="enable-background:new 0 0 16 16;" xml:space="preserve">
<style type="text/css">
	.st0{fill:#606974;}
</style>
<path class="st0" d="M8,0C3.6,0,0,3.6,0,8s3.6,8,8,8s8-3.6,8-8l0,0C16,3.6,12.4,0,8,0z M14.5,11.4c-0.2,0.4-0.5,0.8-0.5,0.8
	l-4.5-2.1c-0.5,0.5-1.1,1-1.7,1.4c-0.9,0.5-2,0.6-3,0.4c-1.1-0.3-1.9-1-1.7-2.2C3.2,8.4,4.6,8,5.7,8S9,8.6,9,8.6s0.2-0.4,0.4-0.9
	c0.1-0.3,0.2-0.5,0.2-0.8H5V6.5h2.2V5.6H4.4V5h2.8V3.7h1.5V5h2.9v0.6h-3v0.8H11c-0.1,0.4-0.2,0.9-0.4,1.3S10.2,8.6,10,9l4.7,1.5
	C14.8,10.9,14.7,11.1,14.5,11.4z"/>
<path class="st0" d="M5.6,8.5C4.5,8.6,4.2,9.1,4.2,9.6s0.3,1.1,1.7,1.1s2.5-1.4,2.5-1.4S6.9,8.5,5.8,8.5C5.7,8.5,5.7,8.5,5.6,8.5z"
	/>
</svg>
