<svg version="1.1" id="图层_1" xmlns="http://www.w3.org/2000/svg" xmlns:xlink="http://www.w3.org/1999/xlink" x="0px" y="0px"
	 viewBox="0 0 16 16" style="enable-background:new 0 0 16 16;" xml:space="preserve">
<style type="text/css">
	.st0{fill:#DB639B;}
</style>
<path class="st0" d="M3.3,9.3c0,0.3,0.1,0.7,0.1,1c0.3-0.2,0.5-0.4,0.8-0.6C4.2,9.6,3.4,9.3,3.3,9.3z"/>
<path class="st0" d="M9.7,9.3c0,0.3,0.1,0.7,0.1,1c0.3-0.2,0.5-0.4,0.8-0.6C10.6,9.6,9.9,9.3,9.7,9.3z"/>
<path class="st0" d="M8,0C3.6,0,0,3.6,0,8s3.6,8,8,8s8-3.6,8-8S12.4,0,8,0z M7.5,6.9h0.3c0,0,0.1,0,0.1,0.1v0.8v0.1
	c-0.1,0-0.2,0-0.3,0L7.5,6.9L7.5,6.9z M5.7,6.8C5.8,6.8,5.8,6.9,5.7,6.8c0.1,0.3,0.1,0.6,0.1,0.9c-0.1,0-0.2,0-0.3,0
	c0-0.3-0.1-0.6-0.1-0.9C5.5,6.8,5.6,6.8,5.7,6.8z M5.3,6.9C5.3,6.9,5.3,6.9,5.3,6.9c0,0.2,0.1,0.3,0.1,0.4c0,0.2,0,0.3,0.1,0.5v0.1
	l-0.2,0C5.1,7.5,5.1,7.2,5,6.9C5.1,6.9,5.2,6.9,5.3,6.9z M5.3,9.8c0,0.1-0.1,0.2-0.2,0.3c-0.3,0.2-0.5,0.4-0.9,0.5
	c-0.2,0.1-0.5,0.1-0.7,0.2c-0.3,0-0.6,0.1-0.9,0.1c-0.1,0-0.1,0-0.2,0c0,0,0,0,0,0c0-0.1,0-0.3,0-0.4c0-0.2,0-0.4-0.1-0.5
	c0-0.3-0.1-0.5-0.1-0.8c0-0.3-0.1-0.5-0.1-0.8C2,8,2,7.8,2,7.5c0-0.3-0.1-0.6-0.1-0.9c0-0.3-0.1-0.7-0.2-1c0,0,0,0,0-0.1
	c0.3-0.1,0.6-0.2,0.9-0.4c0.1,0,0.1-0.1,0.1,0.1c0,0.5,0,1.1,0,1.6c0,0.3,0,0.6,0,0.8c0,0.3,0.1,0.7,0.1,1c0,0,0,0,0,0
	c0.1,0,0.2,0,0.3,0c0.5,0,0.9,0.1,1.4,0.2C4.7,9.1,5,9.2,5.2,9.3C5.3,9.4,5.3,9.6,5.3,9.8z M5.7,10.5C5.5,9.7,5.4,8.9,5.2,8.1
	c0.1,0,0.3,0,0.4-0.1c0.1,0,0.2,0,0.3,0c0,0,0.1,0,0.1,0.1c0,0.1,0,0.2,0.1,0.4C6,8.7,6,8.9,6,9.1c0,0.2,0,0.4,0.1,0.5
	c0,0.2,0,0.4,0.1,0.6c0,0.1,0,0.1,0,0.2C6,10.4,5.8,10.4,5.7,10.5z M7,10.2c-0.2,0-0.3,0-0.5,0C6.3,8.8,6.2,7.3,5.9,5.8
	c0.1,0,0.2,0,0.3,0c0.1,0,0.2,0,0.3,0c0.1,0,0.1,0,0.1,0.1l0,0.7c0,0.3,0,0.6,0.1,0.9c0,0.2,0,0.4,0,0.7c0,0.2,0,0.5,0.1,0.7
	c0,0.2,0,0.4,0.1,0.5C7,9.6,7,9.8,7,10L7,10.2C7,10.2,7,10.2,7,10.2z M7.4,6.9C7.4,6.9,7.4,7,7.4,6.9c0,0.2,0.1,0.3,0.1,0.4v0.5
	c-0.1,0-0.2,0-0.3,0c0-0.3,0-0.6-0.1-0.9L7.4,6.9L7.4,6.9z M7.4,10.5C7.4,10.5,7.4,10.5,7.4,10.5C7.4,10.2,7.3,10,7.3,9.7
	c0-0.2,0-0.5-0.1-0.7c0-0.3,0-0.5-0.1-0.8c0,0,0,0,0-0.1c0.1,0,0.1,0,0.2,0c0.2,0,0.3,0,0.5,0c0,0,0.1,0,0.1,0.1c0,0.1,0,0.2,0,0.2
	c0,0.4,0,0.7,0,1.1c0,0.3,0,0.6,0,0.9c0,0,0,0,0,0.1C7.8,10.5,7.6,10.5,7.4,10.5z M14,6.9h0.3c0,0,0.1,0,0.1,0.1v0.8v0.1
	c-0.1,0-0.2,0-0.3,0L14,6.9L14,6.9z M12.2,6.8C12.2,6.8,12.2,6.9,12.2,6.8c0.1,0.3,0.1,0.6,0.1,0.9c-0.1,0-0.2,0-0.3,0
	c0-0.3-0.1-0.6-0.1-0.9C12,6.8,12.1,6.8,12.2,6.8z M11.8,6.9C11.8,6.9,11.8,6.9,11.8,6.9c0,0.2,0.1,0.3,0.1,0.4c0,0.2,0,0.3,0.1,0.5
	v0.1l-0.2,0c-0.1-0.3-0.1-0.6-0.2-0.9C11.6,6.9,11.7,6.9,11.8,6.9z M11.7,9.8c0,0.1-0.1,0.2-0.2,0.3c-0.3,0.2-0.5,0.4-0.9,0.5
	c-0.2,0.1-0.5,0.1-0.7,0.2c-0.3,0-0.6,0.1-0.9,0.1c-0.1,0-0.1,0-0.2,0c0,0,0,0,0,0c0-0.1,0-0.3,0-0.4c0-0.2,0-0.4-0.1-0.5
	c0-0.3-0.1-0.5-0.1-0.8c0-0.3-0.1-0.5-0.1-0.8c0-0.3-0.1-0.5-0.1-0.8c0-0.3-0.1-0.6-0.1-0.9c0-0.3-0.1-0.7-0.2-1c0,0,0,0,0-0.1
	C8.4,5.4,8.7,5.3,9,5.2c0.1,0,0.1-0.1,0.1,0.1c0,0.5,0,1.1,0,1.6c0,0.3,0,0.6,0,0.8c0,0.3,0.1,0.7,0.1,1c0,0,0,0,0,0
	c0.1,0,0.2,0,0.3,0c0.5,0,0.9,0.1,1.4,0.2c0.2,0.1,0.4,0.2,0.6,0.3C11.8,9.4,11.8,9.6,11.7,9.8z M12.1,10.5
	c-0.2-0.8-0.3-1.6-0.5-2.4c0.1,0,0.3,0,0.4-0.1c0.1,0,0.2,0,0.3,0c0,0,0.1,0,0.1,0.1c0,0.1,0,0.2,0.1,0.4c0,0.2,0,0.4,0.1,0.6
	c0,0.2,0,0.4,0.1,0.5c0,0.2,0,0.4,0.1,0.6c0,0.1,0,0.1,0,0.2C12.5,10.4,12.3,10.4,12.1,10.5z M13.4,10.2c-0.2,0-0.3,0-0.5,0
	c-0.1-1.4-0.3-2.9-0.5-4.4c0.1,0,0.2,0,0.3,0c0.1,0,0.2,0,0.3,0c0.1,0,0.1,0,0.1,0.1l0,0.7c0,0.3,0,0.6,0.1,0.9c0,0.2,0,0.4,0,0.7
	c0,0.2,0,0.5,0.1,0.7c0,0.2,0,0.4,0.1,0.5c0,0.2,0,0.4,0.1,0.6L13.4,10.2C13.5,10.2,13.4,10.2,13.4,10.2z M13.8,6.9
	C13.9,6.9,13.9,7,13.8,6.9c0,0.2,0.1,0.3,0.1,0.4v0.5c-0.1,0-0.2,0-0.3,0c0-0.3,0-0.6-0.1-0.9L13.8,6.9L13.8,6.9z M13.9,10.5
	C13.9,10.5,13.8,10.5,13.9,10.5c-0.1-0.3-0.1-0.6-0.1-0.8c0-0.2,0-0.5-0.1-0.7c0-0.3,0-0.5-0.1-0.8c0,0,0,0,0-0.1c0.1,0,0.1,0,0.2,0
	c0.2,0,0.3,0,0.5,0c0,0,0.1,0,0.1,0.1c0,0.1,0,0.2,0,0.2c0,0.4,0,0.7,0,1.1c0,0.3,0,0.6,0,0.9c0,0,0,0,0,0.1
	C14.2,10.5,14,10.5,13.9,10.5z"/>
</svg>
