<svg version="1.1" id="图层_1" xmlns="http://www.w3.org/2000/svg" xmlns:xlink="http://www.w3.org/1999/xlink" x="0px" y="0px"
	 viewBox="0 0 16 16" style="enable-background:new 0 0 16 16;" xml:space="preserve">
<style type="text/css">
	.st0{fill:#030502;}
	.st1{fill:#FFFFFF;}
</style>
<path class="st0" d="M0,8c0,4.4,3.6,8,8,8s8-3.6,8-8s-3.6-8-8-8S0,3.6,0,8z"/>
<path class="st1" d="M13.1,6L8.3,2.7c-0.2-0.1-0.4-0.1-0.5,0L2.9,6C2.7,6.1,2.7,6.2,2.7,6.4v3.3c0,0.2,0.1,0.3,0.2,0.4l4.9,3.3
	c0.2,0.1,0.4,0.1,0.5,0l4.9-3.3c0.1-0.1,0.2-0.2,0.2-0.4V6.4C13.3,6.2,13.3,6.1,13.1,6z M8.5,4L12,6.4l-1.6,1.1l-2-1.3V4z M7.5,4
	v2.1l-2,1.3L4,6.4L7.5,4z M3.6,7.2L4.7,8L3.6,8.8C3.6,8.8,3.6,7.2,3.6,7.2z M7.5,12L4,9.6l1.6-1.1l2,1.3L7.5,12L7.5,12z M8,9.1
	L6.4,8L8,6.9L9.6,8L8,9.1z M8.5,12V9.9l2-1.3L12,9.6C12,9.6,8.5,12,8.5,12z M12.4,8.8L11.3,8l1.1-0.8L12.4,8.8L12.4,8.8z"/>
</svg>
