<svg version="1.1" id="图层_1" xmlns="http://www.w3.org/2000/svg" xmlns:xlink="http://www.w3.org/1999/xlink" x="0px" y="0px"
	 viewBox="0 0 16 16" style="enable-background:new 0 0 16 16;" xml:space="preserve">
<style type="text/css">
	.st0{fill:#CE000D;}
</style>
<path class="st0" d="M8,0c4.4,0,8,3.6,8,8s-3.6,8-8,8s-8-3.6-8-8S3.6,0,8,0z M11,11.8l0.2-1.7c-0.5,0.1-1.6,0.3-2.3,0.3
	c-2.1,0-3.2-0.7-3.1-2.3C6,6.3,7.6,5.7,9.4,5.7c0.9,0,1.9,0.1,2.4,0.3L12,4.3C11.3,4.1,10.6,4,9.4,4C6.2,4,3.3,5.5,3,8.1
	C2.8,10.3,4.7,12,8.4,12C9.6,12,10.5,11.9,11,11.8z"/>
</svg>
