<svg version="1.1" id="图层_1" xmlns="http://www.w3.org/2000/svg" xmlns:xlink="http://www.w3.org/1999/xlink" x="0px" y="0px"
	 viewBox="0 0 16 16" style="enable-background:new 0 0 16 16;" xml:space="preserve">
<style type="text/css">
	.st0{fill:#61CD72;}
</style>
<path class="st0" d="M6.4,9c0.4,0.6,0.7,1.2,0.9,1.8h1.3C9,10.2,9.4,9.6,9.6,9H6.4z"/>
<path class="st0" d="M8,0C3.6,0,0,3.6,0,8s3.6,8,8,8s8-3.6,8-8l0,0C16,3.6,12.4,0,8,0z M4.1,4.2H12V5H4.1V4.2z M12.2,12.1H3.8v-0.8
	h2.5c-0.3-0.6-0.6-1.2-1-1.7L6,9.1H4.9V5.9h6.3v3.2H10l0.6,0.4c-0.3,0.6-0.6,1.2-0.9,1.7h2.4L12.2,12.1z"/>
<path class="st0" d="M6.1,6.9H10v1.4H6.1V6.9z"/>
</svg>
