<svg version="1.1" id="图层_1" xmlns="http://www.w3.org/2000/svg" xmlns:xlink="http://www.w3.org/1999/xlink" x="0px" y="0px"
	 viewBox="0 0 16 16" style="enable-background:new 0 0 16 16;" xml:space="preserve">
<style type="text/css">
	.st0{fill:#667EB9;}
</style>
<path class="st0" d="M8,0C3.6,0,0,3.6,0,8s3.6,8,8,8s8-3.6,8-8l0,0C16,3.6,12.4,0,8,0z M10.5,8.1H9v5.3H6.8V8.1H5.7V6.3h1.1V5.2
	c0-1.1,0.4-1.9,1.2-2.2c0.3-0.1,0.7-0.2,1-0.2h1.7v1.8h-1c-0.2,0-0.5,0.1-0.6,0.2C9,5.1,8.9,5.3,9,5.5v0.8h1.7L10.5,8.1z"/>
</svg>
