<svg version="1.1" id="图层_1" xmlns="http://www.w3.org/2000/svg" xmlns:xlink="http://www.w3.org/1999/xlink" x="0px" y="0px"
	 viewBox="0 0 16 16" style="enable-background:new 0 0 16 16;" xml:space="preserve">
<style type="text/css">
	.st0{fill:#F35E47;}
</style>
<path class="st0" d="M8,0C3.6,0,0,3.6,0,8s3.6,8,8,8s8-3.6,8-8l0,0C16,3.6,12.4,0,8,0z M7,4.2c0.1,0.1,0.2,0.2,0.3,0.4
	C7.4,4.7,7.4,4.9,7.5,5c0.1,0.2,0.1,0.4,0.1,0.6c0,0.2,0,0.4-0.1,0.6C7.5,6.5,7.4,6.6,7.3,6.8C7.2,6.9,7.1,7,6.9,7.2
	C6.8,7.3,6.7,7.4,6.5,7.5C6.5,7.6,6.4,7.7,6.3,7.8C6.2,7.9,6.2,8,6.2,8.1c0,0.1,0,0.2,0.1,0.3c0.1,0.1,0.1,0.1,0.2,0.2L7,9l0.4,0.4
	c0.1,0.1,0.2,0.2,0.3,0.4c0.1,0.1,0.2,0.3,0.2,0.5C8,10.4,8.1,10.6,8,10.8c0,0.3-0.1,0.6-0.2,0.9c-0.2,0.3-0.4,0.6-0.6,0.8
	c-0.3,0.2-0.7,0.4-1.1,0.6c-0.5,0.1-1,0.2-1.5,0.2c-0.4,0-0.8,0-1.2-0.2c-0.3-0.1-0.6-0.2-0.9-0.4c-0.2-0.2-0.4-0.4-0.5-0.6
	c-0.1-0.2-0.2-0.4-0.2-0.7c0-0.7,0.4-1.3,1-1.6c0.2-0.1,0.4-0.2,0.6-0.3C3.8,9.5,4,9.4,4.2,9.4c0.2,0,0.4-0.1,0.6-0.1
	c0.2,0,0.4,0,0.5,0C5.2,9.1,5.2,9,5.1,8.9C5,8.7,5,8.5,5,8.4c0-0.1,0-0.2,0-0.3C5,8,5.1,7.9,5.1,7.9c-0.1,0-0.1,0-0.2,0
	c-0.1,0-0.1,0-0.2,0c-0.3,0-0.6-0.1-0.9-0.2C3.3,7.5,2.9,7.1,2.7,6.6C2.6,6.4,2.6,6.1,2.6,5.9c0-0.3,0.1-0.6,0.2-0.9
	c0.1-0.3,0.4-0.6,0.6-0.8c0.3-0.3,0.7-0.5,1.2-0.6c0.4-0.1,0.8-0.1,1.1-0.1h2.6L7.5,3.9H6.7C6.8,4,6.9,4.1,7,4.2z M14.4,5.9H12v2.4
	h-0.8V5.9H8.8V5.2h2.4V2.8H12v2.4h2.4V5.9z"/>
<path class="st0" d="M5.7,9.6H5.3c-0.1,0-0.2,0-0.3,0c-0.1,0-0.3,0-0.4,0.1c-0.1,0-0.3,0.1-0.4,0.1L3.9,9.9
	c-0.1,0.1-0.3,0.1-0.4,0.2c-0.1,0.1-0.2,0.2-0.3,0.4c-0.1,0.2-0.1,0.4-0.1,0.6c0,0.5,0.2,0.9,0.6,1.1c0.5,0.3,1.1,0.5,1.6,0.4
	c0.5,0,1-0.1,1.4-0.4c0.3-0.2,0.5-0.6,0.5-1c0-0.2,0-0.3-0.1-0.4c-0.1-0.1-0.1-0.3-0.2-0.4c-0.1-0.1-0.3-0.3-0.4-0.4
	C6.3,9.9,6.1,9.8,5.8,9.6C5.8,9.6,5.7,9.6,5.7,9.6z M6.1,4.7C6,4.5,5.8,4.3,5.6,4.2C5.4,4,5.1,3.9,4.9,3.9C4.7,3.9,4.5,4,4.4,4
	C4.2,4.1,4.1,4.2,4,4.3C3.9,4.5,3.8,4.6,3.8,4.8c0,0.2-0.1,0.3-0.1,0.5c0,0.2,0,0.5,0.1,0.7C3.9,6.3,4,6.5,4.1,6.7
	C4.2,7,4.4,7.2,4.6,7.3C4.8,7.5,5,7.6,5.3,7.6c0.2,0,0.3,0,0.5-0.1c0.1-0.1,0.3-0.1,0.4-0.3c0.1-0.1,0.2-0.3,0.3-0.5
	c0-0.2,0.1-0.3,0.1-0.5c0-0.3,0-0.5-0.1-0.8C6.3,5.2,6.2,5,6.1,4.7z"/>
</svg>
