<svg version="1.1" id="图层_1" xmlns="http://www.w3.org/2000/svg" xmlns:xlink="http://www.w3.org/1999/xlink" x="0px" y="0px"
	 viewBox="0 0 16 16" style="enable-background:new 0 0 16 16;" xml:space="preserve">
<style type="text/css">
	.st0{fill:#EC725E;}
	.st1{fill:#FFFFFF;}
</style>
<circle class="st0" cx="8" cy="8" r="8"/>
<g>
	<path class="st1" d="M3.7,7.2h1.1v5.7H3.7V7.2z M4.3,5.4c0.3,0.5,0.4,1,0.5,1.5h1.2C5.9,6.3,5.7,5.8,5.4,5.4H4.3z"/>
	<path class="st1" d="M6.7,4.4H8V3.7H5.6c0-0.1,0.1-0.2,0.1-0.3c0-0.1,0.1-0.2,0.1-0.3H4.6C4.4,3.9,4,4.5,3.3,4.8v0.7
		C4.2,5.3,4.8,5,5.2,4.4h0.4c0.1,0.4,0.2,0.7,0.2,1.1H7C6.9,5.1,6.8,4.7,6.7,4.4z M6.1,6.7h4.9v4.6c0,0.4-0.2,0.6-0.6,0.6H9.8v0.8h1
		c0.9,0,1.4-0.4,1.4-1.3V5.9h-6V6.7z"/>
	<path class="st1" d="M10,7.5H6v4.2h2.8c0.9,0,1.3-0.4,1.2-1.3L10,7.5L10,7.5z M7.1,8.2h1.8v1H7.1V8.2z M8.4,10.9H7.1V9.9h1.8v0.5
		C8.9,10.8,8.7,11,8.4,10.9z M10,3.7c0,0,0-0.1,0-0.1l0.1-0.4H9C8.8,3.9,8.4,4.5,7.7,4.9v0.7C8.5,5.4,9.2,5,9.6,4.4h0.6
		c0.1,0.4,0.2,0.7,0.2,1.1h1.1c0-0.3-0.1-0.6-0.3-1.1h1.4V3.7L10,3.7C10,3.7,10,3.7,10,3.7z"/>
</g>
</svg>
