<svg xmlns="http://www.w3.org/2000/svg" viewBox="0 0 16 16"><defs><style>.cls-1{fill:#5b9bd5;}.cls-2{fill:#fff;}</style></defs><title>luogu</title><g id="图层_2" data-name="图层 2"><circle class="cls-1" cx="8" cy="8" r="8"/></g><g id="图层_1" data-name="图层 1"><path class="cls-2" d="M8.9,10.3a1.9,1.9,0,0,1,1.8,1.1,5.8,5.8,0,0,0,1.1,1.5l.3.4c.1.4,0,.6-.4.7a1.7,1.7,0,0,1-1.9-.9,14.7,14.7,0,0,0-1-1.3l-.5-.6c-.1-.2-.2-.2-.3-.1a15,15,0,0,0-2,2.4,1,1,0,0,1-.8.5H4.3c-.4-.1-.5-.3-.3-.7s.5-.7.7-1.1a15.3,15.3,0,0,1,1.8-1.8L8.8,7.9,9,7.7c.3-.4.3-.4-.1-.6l-1-.7L7.6,6c-.1-.4.1-.6.5-.6H9.9a1.5,1.5,0,0,1,1,.6l.5.7a.7.7,0,0,1,0,.9l-.4.5L9.1,10C9,10.1,8.9,10.2,8.9,10.3Z"/><path class="cls-2" d="M8.9,2.9a2.8,2.8,0,0,1-.6,1.5A7.1,7.1,0,0,1,6.8,5.9H6.6c-.5.5-.5.8.1,1.1a1.7,1.7,0,0,1,1,1c.2.4,0,.8-.5,1a1.5,1.5,0,0,1-1.4-.4L4.7,7.6a1.3,1.3,0,0,1,0-2.1A9,9,0,0,0,6.3,3.7l.9-1.1a1.2,1.2,0,0,1,1-.6C8.7,2,9,2.2,8.9,2.9Z"/></g></svg>