<svg version="1.1" id="图层_1" xmlns="http://www.w3.org/2000/svg" xmlns:xlink="http://www.w3.org/1999/xlink" x="0px" y="0px"
	 viewBox="0 0 16 16" style="enable-background:new 0 0 16 16;" xml:space="preserve">
<style type="text/css">
	.st0{fill:#0074AA;}
</style>
<path class="st0" d="M11.1,4.6c-0.7-0.7-1.6-1.1-2.6-1.1C7.9,3.5,7.5,3.6,7,3.7C6.6,3.9,6.1,4,5.7,4.3c-0.1,0-0.1,0.1-0.1,0.1
	c0,0.5,0,1,0,1.4c0,0.4,0,0.9,0,1.3c0,0.9,0,1.8,0,2.8c0,0.1,0,0.1,0.1,0.2c0.3,0.1,0.6,0.2,0.9,0.3c0.5,0.1,1,0.2,1.5,0.2
	c0.5,0,1.1,0,1.6-0.2c1-0.3,1.7-1,2.1-2c0.3-0.6,0.3-1.3,0.2-2C11.9,5.8,11.6,5.1,11.1,4.6L11.1,4.6z"/>
<path class="st0" d="M8,0C3.6,0,0,3.6,0,8s3.6,8,8,8s8-3.6,8-8S12.4,0,8,0z M13.3,8.6c-0.3,0.8-0.8,1.4-1.5,1.8
	c-0.7,0.5-1.5,0.8-2.3,0.9c-1.1,0.1-2.1,0-3.2-0.3c-0.2-0.1-0.4-0.1-0.6-0.2c-0.1,0-0.1,0-0.1,0.1c0,0.5,0,1.1,0,1.6
	c0,0.1,0,0.1,0.1,0.1c0.1,0,0.2,0.1,0.3,0.2c0.1,0,0.1,0.1,0.1,0.2c0,0.1-0.1,0.1-0.2,0.1c-0.3,0-0.6,0-1,0c-0.3,0-0.6,0-0.9,0
	c-0.1,0-0.1,0-0.2-0.1c0-0.1,0-0.1,0-0.2c0.1-0.1,0.2-0.1,0.3-0.2c0.1,0,0.1,0,0.1-0.2c0-2.5,0-4.9,0-7.4c0,0,0-0.1,0-0.1
	c0,0-0.1,0-0.1,0.1c-0.4,0.3-0.7,0.6-1,1c0,0,0,0,0,0C3.2,6.2,3.1,6.3,3.2,6.5c0,0.1,0,0.2,0,0.3c0,0.1,0,0.1-0.1,0.1
	C3,7,3,7,2.9,6.9c-0.2-0.3-0.4-0.7-0.6-1c0-0.1,0-0.1,0-0.1c0.3-0.3,0.6-0.6,0.9-0.8C4.1,4.3,5,3.7,6,3.4C6.6,3.1,7.3,3,8,2.9
	c0.8-0.1,1.6,0,2.4,0.2c0.8,0.2,1.5,0.6,2.1,1.3c0.6,0.6,0.9,1.4,1.1,2.2C13.6,7.3,13.5,8,13.3,8.6z"/>
</svg>
