<svg version="1.1" id="图层_1" xmlns="http://www.w3.org/2000/svg" xmlns:xlink="http://www.w3.org/1999/xlink" x="0px" y="0px"
	 viewBox="0 0 16 16" style="enable-background:new 0 0 16 16;" xml:space="preserve">
<style type="text/css">
	.st0{fill:#68A5E1;}
</style>
<path class="st0" d="M8,0C3.6,0,0,3.6,0,8s3.6,8,8,8s8-3.6,8-8l0,0C16,3.6,12.4,0,8,0z M12.5,10.5c-0.2,0.1-0.4-0.1-0.5-0.4
	c-0.2-0.3-0.3-0.5-0.3-0.4c-0.1,0.5-0.3,0.9-0.7,1.3c0,0,0.5,0.2,0.7,0.7c0.2,0.4,0.4,1.1-1.5,1.3c-0.5,0-1-0.1-1.5-0.3
	c-0.3-0.2-0.5-0.3-0.5-0.3c-0.1,0-0.2,0-0.2,0c-0.1,0-0.2,0-0.3,0c0,0-0.4,0.6-2.1,0.6c-1.3,0-1.6-0.8-1.4-1.3C4.6,11.2,5,11,4.9,11
	c-0.3-0.3-0.5-0.7-0.6-1.1c0-0.1-0.1-0.2-0.1-0.2c0-0.1-0.1,0.2-0.3,0.4c-0.1,0.2-0.3,0.4-0.4,0.4c0,0-0.1,0-0.1,0
	c-0.4-0.3-0.4-1-0.1-1.7c0.3-0.7,0.9-1.4,0.9-1.5c0-0.6-0.1-0.6,0-0.8c0.1-0.3,0.3-0.2,0.3-0.4C4.5,4,6.1,2.2,8,2.2s3.5,1.7,3.5,3.8
	c0,0.1,0.2,0,0.3,0.4c0,0.3,0,0.5,0,0.8c0,0.2,0.5,0.4,0.8,1.5C12.9,9.8,12.7,10.3,12.5,10.5z"/>
</svg>
