<svg version="1.1" id="图层_1" xmlns="http://www.w3.org/2000/svg" xmlns:xlink="http://www.w3.org/1999/xlink" x="0px" y="0px"
	 viewBox="0 0 16 16" style="enable-background:new 0 0 16 16;" xml:space="preserve">
<style type="text/css">
	.st0{fill:#BE4747;}
</style>
<path class="st0" d="M8,0C3.6,0,0,3.6,0,8s3.6,8,8,8s8-3.6,8-8l0,0C16,3.6,12.4,0,8,0z M10.8,11.8c0.2,0.1,0.4,0.1,0.6,0.1l0.1,1
	c0,0-1,0.3-1.6-0.1c-0.3-0.2-0.6-0.5-0.9-0.9C8.8,12,8.4,12,8.1,12c-1.1,0-2.2-0.4-3-1.2C4.4,10.1,4,9,4,7.7c0-1.3,0.4-2.4,1.1-3.2
	c0.7-0.8,1.8-1.2,3-1.2s2.3,0.4,3,1.2c0.7,0.8,1.1,1.9,1.1,3.2c0,1.8-0.6,3-1.9,3.8C10.5,11.6,10.6,11.8,10.8,11.8z"/>
<path class="st0" d="M8.2,4.5c-0.6,0-1.2,0.3-1.6,0.9C6.2,6,6,6.8,6,7.6c0,0.8,0.2,1.6,0.6,2.3c0.3,0.5,0.9,0.9,1.5,0.9
	c0.2,0,0.4,0,0.5-0.1c0.1,0-0.1-0.3-0.3-0.4c-0.2-0.1-0.5-0.2-0.8-0.3V9.4c0.4-0.1,0.8-0.1,1.2,0c0.6,0.2,0.8,0.7,0.8,0.7
	c0-0.1,0.1-0.1,0.1-0.1c0.4-0.7,0.6-1.5,0.6-2.3c0-0.8-0.2-1.6-0.6-2.3C9.4,4.8,8.8,4.4,8.2,4.5z"/>
</svg>
