<svg version="1.1" id="图层_1" xmlns="http://www.w3.org/2000/svg" xmlns:xlink="http://www.w3.org/1999/xlink" x="0px" y="0px"
	 viewBox="0 0 16 16" style="enable-background:new 0 0 16 16;" xml:space="preserve">
<style type="text/css">
	.st0{fill:#FFFFFF;}
	.st1{fill:#6D56F3;}
</style>
<circle class="st0" cx="8" cy="8" r="8"/>
<path class="st1" d="M8,0C3.6,0,0,3.6,0,8s3.6,8,8,8s8-3.6,8-8S12.4,0,8,0z M12.9,8.1h-1v3.6c0,0.3,0,0.5-0.4,0.5H9.2V8.6H6.8v3.6
	H4.6c-0.5,0-0.5-0.2-0.5-0.5l0-3.6h-1c-0.3,0-0.4-0.2-0.2-0.4l4.6-4.6c0.2-0.2,0.6-0.2,0.9,0l4.6,4.6C13.3,7.9,13.2,8.1,12.9,8.1z"
	/>
</svg>
