<svg version="1.1" id="图层_1" xmlns="http://www.w3.org/2000/svg" xmlns:xlink="http://www.w3.org/1999/xlink" x="0px" y="0px"
	 viewBox="0 0 16 16" style="enable-background:new 0 0 16 16;" xml:space="preserve">
<style type="text/css">
	.st0{fill:#FC8848;}
</style>
<path class="st0" d="M8,0C3.6,0,0,3.6,0,8s3.6,8,8,8s8-3.6,8-8l0,0C16,3.6,12.4,0,8,0z M4.2,3.5c0.5,0,1,0.4,1,1c0,0.5-0.4,1-1,1
	s-1-0.4-1-1l0,0C3.2,4,3.6,3.5,4.2,3.5C4.2,3.5,4.2,3.5,4.2,3.5z M3.7,12l-1.6-1.2c0,0,2.3-1.9,2.2-2.5S2.6,6.9,2.6,6.9l0.7-1
	c0,0,1.9,1.2,2,2.2S3.7,12,3.7,12L3.7,12z M13.4,10.2c0,0-0.2,1.2-1.2,1.7c-1.1,0.4-2.7,0.1-2.7,0.1l0.1-0.7c0,0,1,0.2,1.6,0
	c0.3-0.1,0.6-0.3,0.8-0.7V5.8c-0.1-0.4-0.3-0.7-0.6-0.8c-0.6-0.3-0.8-0.3-1.4-0.2C9.3,4.9,8.8,5,8.3,5.3l-0.5,1h3.5V7H9.2v0.9h2.2
	v0.6L9.2,8.5v1.6l1-0.5L10.2,9L11,8.8l0.6,1.6l-1,0.5l-0.1-0.6c0,0-1.9,0.8-2.7,0.9c-0.8,0.1-1.5-0.1-1.9-0.7C5.4,10,5.5,9,5.5,9
	l1.4,0c-0.1,0.3,0,0.7,0.2,1C7.3,10.4,8,10.3,8,10.3V8.5L5.8,8.4V7.8H8L8,7L7.3,6.8c0,0-0.6,0.9-0.9,0.8C6,7.7,6,7.2,6,7.2l1.2-1.5
	L6.5,5.6l-1,1.1L4.8,6.1C5.2,5.8,5.5,5.4,5.7,5C6,4.5,6.2,4.1,6.3,3.6l1.2,0.5L7.1,4.7c0,0,0.1,0.1,0.4,0c0.3,0,2.3-1,3.6-0.8
	c1.4,0.2,2.2,1.3,2.2,2.1L13.4,10.2z"/>
</svg>
