<svg version="1.1" id="图层_1" xmlns="http://www.w3.org/2000/svg" xmlns:xlink="http://www.w3.org/1999/xlink" x="0px" y="0px"
	 viewBox="0 0 16 16" style="enable-background:new 0 0 16 16;" xml:space="preserve">
<style type="text/css">
	.st0{fill:#5DD7FC;}
</style>
<path class="st0" d="M8,0C3.6,0,0,3.6,0,8s3.6,8,8,8s8-3.6,8-8l0,0C16,3.6,12.4,0,8,0z M12.9,5.5c-0.3,0.3-0.4,0.4-0.4,0.4
	s0.1,2.1-1,3.7S9,12.1,7,12.3c-1.2,0.1-2.3-0.1-3.4-0.6c0.5,0,1-0.1,1.5-0.3c0.5-0.2,1-0.5,1.4-0.8c0,0-1.2-0.4-1.6-0.8
	C4.7,9.7,4.5,9.5,4.4,9.3h1.1c0,0-1.2-0.7-1.6-1.2c-0.2-0.3-0.3-0.6-0.4-1l0.9,0.4c0,0-0.7-1-0.8-1.8c-0.1-0.4,0-0.8,0.1-1.2
	c0,0,0.4,0.7,1.9,1.5c0.9,0.4,1.8,0.7,2.8,0.7h0c0,0-0.5-1.7,1-2.5c0.9-0.4,1.9-0.2,2.6,0.5c0,0,0.3-0.1,0.5-0.1
	C12.7,4.5,13,4.4,13,4.4l-0.5,0.8l0.7-0.1C13.2,5.3,13,5.4,12.9,5.5L12.9,5.5z"/>
</svg>
