<?xml version="1.0" encoding="utf-8"?>
<svg id="图层_1" data-name="图层 1"
    xmlns="http://www.w3.org/2000/svg" viewBox="0 0 16 16">
    <defs>
        <style>.cls-1{fill:#c31756;}.cls-2{fill:#fff;}</style>
    </defs>
    <title>uva</title>
    <circle class="cls-1" cx="8" cy="8" r="8"/>
    <path class="cls-2" d="M3.136,5.941h.851V8.632a.782.782,0,0,0,.756.638c.638,0,.8-.393.8-.649V5.941h.744v2.7S6.349,9.93,4.711,9.93,3.126,8.813,3.136,8.7,3.136,5.941,3.136,5.941Z"/>
    <polygon class="cls-2" points="6.796 5.941 7.594 5.941 8.509 8.749 9.509 5.941 10.37 5.941 8.956 9.93 8.158 9.93 6.796 5.941"/>
    <path class="cls-2" d="M11.008,7.432a1.71,1.71,0,0,1,.482-.163,2.582,2.582,0,0,1,.516-.062.987.987,0,0,1,1.116,1.117V9.93h-.739V9.544h-.009a.876.876,0,0,1-.8.451.846.846,0,0,1-.6-.215.77.77,0,0,1-.227-.585q0-.765.911-.89l.731-.1c0-.31-.161-.464-.483-.464a1.555,1.555,0,0,0-.9.288Zm.878,1.294c-.28.036-.421.163-.421.38a.3.3,0,0,0,.1.24.393.393,0,0,0,.274.091.511.511,0,0,0,.393-.168.6.6,0,0,0,.153-.418v-.19Z"/>
</svg>