<svg version="1.1" id="图层_1" xmlns="http://www.w3.org/2000/svg" xmlns:xlink="http://www.w3.org/1999/xlink" x="0px" y="0px"
	 viewBox="0 0 16 16" style="enable-background:new 0 0 16 16;" xml:space="preserve">
<style type="text/css">
	.st0{fill:#8DC81B;}
</style>
<path class="st0" d="M8.6,8.3c0,0.2,0.1,0.3,0.3,0.3c0.2,0,0.3-0.1,0.3-0.3C9.3,8.1,9.1,8,9,8S8.6,8.1,8.6,8.3L8.6,8.3z"/>
<path class="st0" d="M4.7,9.1c0,0,0.2,0.1,0.2,0.2c0,0.2,0,0.3-0.1,0.4C4.9,9.6,5,9.5,5.1,9.4c0.1,0,0.2,0,0.2,0
	c0.4,0.1,0.8,0.2,1.2,0.2c0.2,0,0.3,0,0.5,0c0-0.1,0-0.2,0-0.3C7,8,8.1,7,9.6,6.8c-0.2-1.3-1.5-2.3-3-2.3c-1.7,0-3,1.1-3,2.5
	C3.5,7.9,4,8.6,4.7,9.1z M7.8,5.4c0.3,0,0.5,0.2,0.5,0.5c0,0.3-0.2,0.5-0.5,0.5c-0.3,0-0.5-0.2-0.5-0.5c0,0,0,0,0,0
	C7.4,5.7,7.6,5.4,7.8,5.4z M5.3,5.4c0.3,0,0.5,0.3,0.4,0.5c0,0.2-0.2,0.4-0.4,0.4C5,6.4,4.8,6.2,4.8,6C4.7,5.7,4.9,5.5,5.3,5.4
	C5.2,5.4,5.3,5.4,5.3,5.4z M10.9,8.6c0.2,0,0.3-0.1,0.3-0.3c0-0.2-0.1-0.3-0.3-0.3c-0.2,0-0.3,0.1-0.3,0.3c0,0,0,0,0,0
	C10.6,8.5,10.7,8.6,10.9,8.6C10.9,8.6,10.9,8.6,10.9,8.6z"/>
<path class="st0" d="M8,16c4.4,0,8-3.6,8-8s-3.6-8-8-8S0,3.6,0,8c0,0,0,0,0,0C0,12.4,3.6,16,8,16z M6.6,3.8c1.9,0,3.5,1.3,3.7,2.9
	c1.6,0.1,2.9,1.2,2.9,2.5c0,0.9-0.5,1.6-1.3,2.1c-0.1,0.1,0.3,0.8,0.1,0.9c0,0-0.3-0.1-0.5-0.3s-0.4-0.3-0.5-0.3
	c-0.3,0.1-0.7,0.1-1,0.1c-1.3,0-2.4-0.7-2.9-1.7c-0.7,0.1-1.3,0.1-2-0.1c-0.1,0-0.3,0.1-0.6,0.3c-0.1,0.1-0.3,0.3-0.5,0.3h0
	c-0.1-0.1,0.3-1,0.2-1C3.5,9.1,2.9,8.1,2.9,7C2.9,5.3,4.5,3.8,6.6,3.8z"/>
</svg>
