<svg version="1.1" id="图层_1" xmlns="http://www.w3.org/2000/svg" xmlns:xlink="http://www.w3.org/1999/xlink" x="0px" y="0px"
	 viewBox="0 0 16 16" style="enable-background:new 0 0 16 16;" xml:space="preserve">
<style type="text/css">
	.st0{fill:#F56467;}
</style>
<path class="st0" d="M7.4,7C7.2,7,7,7,6.8,7.1C5,7.3,3.7,8.4,3.9,9.6c0.2,1.1,1.7,1.9,3.5,1.6c1.8-0.2,3-1.4,2.9-2.5
	C10.1,7.7,8.9,7,7.4,7z M7,10.9c-0.1,0-0.3,0-0.4,0c-0.9,0-1.6-0.5-1.8-1.2C4.6,8.8,5.4,7.9,6.4,7.7s2,0.3,2.2,1.2S8,10.7,7,10.9z"
	/>
<path class="st0" d="M8,0C3.6,0,0,3.6,0,8s3.6,8,8,8s8-3.6,8-8l0,0C16,3.6,12.4,0,8,0z M7.2,12.2c-2.7,0-5-1.4-5-3.2
	s3.3-4.5,4.6-4.5c0.5,0,1.6,0.4,0.8,1.7C7.9,6,8.1,6,8.3,5.9c0.6-0.2,1.4-0.3,2,0c0.9,0.5,0,1.4,0,1.5s1.9,0.1,1.9,1.6
	C12.1,10.7,9.9,12.2,7.2,12.2z M11.1,5.6c-0.2-0.2-0.5-0.3-0.9-0.3c-0.2,0-0.3-0.1-0.3-0.3c0,0,0,0,0,0V5c0,0,0,0,0,0
	c0-0.2,0.2-0.3,0.3-0.3c0.4-0.1,0.9,0,1.2,0.3c0.6,0.5,0.3,1.4,0.3,1.4c0,0.2-0.2,0.3-0.4,0.3h0c-0.1,0-0.2-0.1-0.2-0.2
	c0,0,0-0.1,0-0.1C11.3,6.2,11.3,5.9,11.1,5.6z M13.3,6.7c0,0.2-0.2,0.4-0.5,0.5c-0.2,0-0.4-0.2-0.4-0.4c0,0,0,0,0,0
	c0.1-0.7,0-1.4-0.4-1.9c-0.6-0.9-2-0.8-2-0.8C9.8,4,9.6,3.9,9.6,3.6v0.1V3.6v0c0-0.2,0.2-0.4,0.5-0.4c0.9-0.1,1.8,0.3,2.5,0.9
	C13.6,5.1,13.3,6.7,13.3,6.7z"/>
<path class="st0" d="M7,8.6C6.9,8.6,6.7,8.8,6.7,9c0,0.2,0.1,0.3,0.3,0.3c0.2,0,0.3-0.1,0.3-0.3l0,0C7.4,8.8,7.2,8.6,7,8.6z
	 M6.2,9.1c-0.1,0-0.2,0-0.3,0.1C5.6,9.2,5.4,9.5,5.5,9.8C5.7,10.1,6,10.2,6.3,10c0.3-0.1,0.5-0.4,0.4-0.7C6.6,9.1,6.4,9,6.2,9.1z"/>
</svg>
