<svg version="1.1" id="图层_1" xmlns="http://www.w3.org/2000/svg" xmlns:xlink="http://www.w3.org/1999/xlink" x="0px" y="0px"
	 viewBox="0 0 16 16" style="enable-background:new 0 0 16 16;" xml:space="preserve">
<style type="text/css">
	.st0{fill:#49C0FB;}
</style>
<path class="st0" d="M8,0C3.6,0,0,3.6,0,8s3.6,8,8,8s8-3.6,8-8l0,0C16,3.6,12.4,0,8,0z M6.2,8.4L5.9,9.6l0.4-0.4c0,0,1,1.1,1.2,1.4
	c0.2,0.3,0,1.3,0,1.3L5.8,9.8c0,0-0.5,1.8-1.2,2.3c-0.4,0.2-1,0.3-1.5,0.1c0.6-0.4,1.1-1,1.6-1.6C5,9.9,5.3,9.1,5.4,8.4H3.3
	c0,0,0.2-0.7,0.4-0.8s1.7,0,1.7,0l0-2.3l-0.8,0C4.5,5.7,4.3,6,4,6.2C3.6,6.6,3.3,6.4,3.3,6.4s0.8-2.2,1-2.6s0.9-0.5,0.9-0.5L4.8,4.6
	h2.7c0.3,0,0.3,0.7,0.3,0.7H6.2v2.2c0,0,1.1,0,1.5,0C8,7.6,8,8.4,8,8.4L6.2,8.4z M12.2,11.3h-1.7l-1.2,0.8l-0.2-0.8H8.4V4.6h3.8
	L12.2,11.3z"/>
<path class="st0" d="M9.7,11.3l1-0.8h0.8V5.3H9.2v5.2h0.2L9.7,11.3z"/>
</svg>
